# xmcd
#
# Track frame offsets: 
#        150
#        15870
#        29313
#        49334
#        68707
#        87794
#        100298
#        116845
#        129394
#        141246
#        158100
#
# Disc length: 2368 seconds
#
# Revision: 0
# Processed by: cddbd v1.5.2PL0 Copyright (c) Steve Scherf et al.
# Submitted via: ExactAudioCopyFreeDBPlugin 1.0
#
DISCID=8b093e0b
DTITLE=Mipso - Dark Holler Pop
DYEAR=2013
DGENRE=Bluegrass
TTITLE0=A Couple Acres Greener
TTITLE1=Tried Too Hard
TTITLE2=Louise
TTITLE3=Rocking Chair Blues
TTITLE4=Red Eye to Raleigh
TTITLE5=When I'm Gone
TTITLE6=Get Out
TTITLE7=Squirrels
TTITLE8=Border Tonight
TTITLE9=Carolina Calling
TTITLE10=Do You Want Me?
EXTD=
EXTT0=
EXTT1=
EXTT2=
EXTT3=
EXTT4=
EXTT5=
EXTT6=
EXTT7=
EXTT8=
EXTT9=
EXTT10=
PLAYORDER=
